<?xml version="1.0" standalone="no"?>
<!DOCTYPE svg PUBLIC "-//W3C//DTD SVG 20010904//EN"
 "http://www.w3.org/TR/2001/REC-SVG-20010904/DTD/svg10.dtd">
<svg version="1.0" xmlns="http://www.w3.org/2000/svg"
 width="1280.000000pt" height="932.000000pt" viewBox="0 0 1280.000000 932.000000"
 preserveAspectRatio="xMidYMid meet">
<metadata>
Created by potrace 1.15, written by Peter Selinger 2001-2017
</metadata>
<g transform="translate(0.000000,932.000000) scale(0.100000,-0.100000)"
fill="#ffffff" stroke="none">
<path d="M11380 9301 c-162 -32 -306 -91 -690 -281 -407 -202 -555 -267 -756
-336 -305 -104 -485 -123 -979 -105 -733 26 -889 12 -1255 -109 -356 -118
-660 -267 -1005 -495 -434 -286 -709 -540 -969 -894 -40 -55 -64 -75 -169
-139 -304 -186 -619 -403 -842 -581 -166 -133 -414 -381 -444 -445 -44 -95 -6
-166 93 -174 69 -6 176 24 381 107 82 33 151 59 152 57 4 -4 -238 -304 -332
-411 -173 -197 -386 -423 -574 -608 -105 -103 -196 -197 -202 -208 -25 -47 20
-109 79 -109 31 0 53 19 239 203 400 395 710 747 1000 1137 l101 136 99 43
c702 309 972 410 1194 446 46 7 73 37 73 80 0 39 -24 71 -60 78 -41 7 -177
-20 -313 -64 -221 -72 -443 -163 -994 -405 -432 -191 -703 -301 -713 -291 -7
6 173 176 276 262 198 164 492 371 805 565 79 50 151 90 159 90 9 0 30 13 48
28 44 38 387 231 671 377 125 64 234 126 242 138 22 31 18 65 -10 92 -42 43
-68 35 -352 -110 l-264 -134 42 50 c53 63 204 201 329 300 421 333 878 585
1324 730 308 100 484 118 990 101 608 -21 749 -16 976 34 262 59 538 169 990
397 442 223 573 274 762 298 147 19 290 -13 391 -87 27 -19 47 -37 45 -40 -2
-2 -29 6 -59 18 -68 26 -223 36 -311 18 -106 -20 -411 -128 -430 -151 -40 -48
-2 -129 60 -129 16 0 94 23 173 51 275 96 392 102 523 25 25 -14 55 -26 68
-26 34 0 66 26 76 62 l8 31 107 -127 c101 -120 115 -146 82 -146 -31 0 -214
-83 -308 -141 -169 -103 -539 -390 -701 -543 -44 -41 -48 -84 -11 -121 41 -42
79 -34 155 31 385 330 594 482 782 569 74 34 178 65 218 65 24 0 233 -210 262
-264 52 -96 18 -249 -82 -376 -17 -21 -180 -164 -363 -317 -855 -715 -1184
-1005 -1581 -1393 -840 -821 -1419 -1608 -1866 -2533 -121 -252 -180 -390
-180 -424 0 -61 93 -100 133 -55 8 9 43 80 77 157 402 910 975 1745 1724 2510
l156 160 -123 -186 c-668 -1006 -1112 -2064 -1387 -3306 -150 -679 -252 -1504
-276 -2229 l-7 -202 26 -26 c28 -28 52 -32 91 -15 37 17 44 49 51 214 101
2526 817 4557 2189 6210 247 297 244 295 1024 948 237 198 411 351 438 385 58
74 119 196 134 269 16 77 8 184 -20 258 -19 48 -43 80 -124 165 -114 118 -184
197 -336 380 -136 163 -280 311 -355 364 -148 105 -359 141 -575 97z"/>
<path d="M3721 8570 c-93 -4 -121 -8 -110 -16 53 -41 365 -212 579 -317 247
-120 366 -190 460 -266 l44 -36 -29 -6 c-60 -13 -380 -9 -597 8 -279 21 -812
24 -943 5 -111 -16 -309 -59 -351 -77 l-32 -13 9 -53 c18 -106 7 -96 116 -104
254 -16 485 -65 767 -162 88 -30 168 -59 176 -63 20 -11 40 -5 -305 -95 -642
-169 -886 -249 -1180 -389 -138 -66 -295 -160 -370 -221 l-44 -37 34 -69 c20
-38 38 -69 41 -69 4 0 110 22 238 49 422 90 844 165 1236 220 377 52 370 57
85 -62 -662 -275 -1128 -490 -1427 -659 l-107 -61 26 -56 c14 -31 27 -64 30
-73 7 -23 7 -23 132 13 283 83 731 173 1026 208 88 10 161 17 163 16 1 -1 -57
-32 -130 -67 -302 -146 -558 -308 -809 -509 -119 -96 -329 -287 -329 -300 0
-14 79 -129 88 -129 5 0 62 18 127 40 126 43 485 144 490 138 2 -2 -45 -43
-103 -93 -450 -383 -903 -890 -1223 -1367 -79 -117 -209 -324 -209 -332 0 -2
27 -27 59 -56 l60 -51 88 68 c322 251 676 474 1028 648 171 85 425 198 431
192 1 -1 -47 -75 -107 -165 -119 -179 -241 -374 -309 -495 l-44 -78 -161 -106
c-825 -546 -1522 -856 -2147 -954 -164 -26 -183 -36 -183 -99 0 -51 30 -80 80
-80 52 0 253 37 408 74 491 119 1083 386 1675 756 94 60 172 106 172 104 0 -2
-13 -37 -30 -79 -44 -112 -73 -231 -74 -310 0 -56 7 -92 38 -184 l38 -113 75
143 c41 79 108 194 148 254 285 426 777 896 1088 1040 42 20 81 44 87 55 29
55 -7 120 -68 120 -43 0 -155 -54 -267 -128 -146 -97 -299 -226 -471 -397
-140 -139 -205 -210 -372 -411 -27 -32 -21 -15 38 104 117 233 323 566 583
941 77 110 107 162 107 183 0 36 -40 78 -75 78 -28 0 -237 -75 -388 -139 -366
-156 -648 -307 -985 -527 l-143 -94 47 68 c360 511 883 1050 1432 1476 56 44
102 80 102 82 0 1 -24 20 -53 43 -50 38 -59 41 -115 41 -69 0 -230 -32 -427
-85 -71 -19 -131 -33 -133 -31 -6 7 173 141 311 233 274 183 579 337 937 473
l125 48 -1 33 c0 19 -4 56 -8 83 l-8 49 -191 -6 c-297 -10 -664 -51 -904 -102
-35 -7 -63 -11 -63 -9 0 22 983 435 1587 668 137 53 169 79 159 130 -11 52
-32 66 -100 66 -149 0 -778 -73 -1176 -136 -212 -33 -682 -116 -735 -130 -53
-13 -21 6 83 49 222 94 501 181 1032 321 157 41 338 91 404 110 l118 34 72
-24 c183 -63 364 -97 524 -98 113 -1 114 -1 139 28 19 23 24 36 19 60 -13 62
-31 70 -183 77 -199 10 -316 39 -648 159 -310 112 -503 177 -580 196 -38 9
-74 21 -80 27 -14 13 388 2 670 -19 260 -19 591 -22 690 -5 73 12 233 59 249
72 13 12 -84 137 -165 214 -96 90 -221 170 -421 271 -93 46 -168 85 -168 87 0
5 149 -4 294 -19 501 -51 950 -194 1377 -440 43 -25 89 -44 106 -44 65 0 97
87 50 134 -28 28 -198 124 -335 189 -402 189 -838 301 -1311 337 -137 10 -444
10 -670 0z"/>
<path d="M8740 8383 c-376 -59 -729 -216 -1189 -526 -166 -112 -211 -153 -211
-194 0 -34 30 -70 65 -79 28 -7 60 11 205 114 355 253 735 438 1036 504 101
22 384 35 384 17 0 -12 -117 -93 -200 -138 -214 -115 -694 -272 -982 -321 -47
-8 -73 -19 -89 -36 -30 -32 -29 -77 2 -110 21 -23 30 -25 74 -21 73 8 268 53
442 103 400 114 778 294 874 416 57 71 94 83 254 83 104 0 174 -6 272 -24 125
-22 134 -23 158 -7 60 39 50 123 -17 144 -75 24 -309 54 -418 55 -126 1 -203
-16 -277 -59 -29 -17 -41 -20 -37 -10 9 24 -23 73 -57 85 -30 10 -232 13 -289
4z"/>
<path d="M7722 4610 c-26 -24 -36 -60 -27 -90 7 -22 138 -113 314 -219 188
-114 294 -151 427 -151 135 0 244 41 416 156 102 68 118 85 118 129 0 39 -16
62 -50 74 -38 13 -44 11 -166 -72 -124 -83 -208 -118 -295 -125 -120 -8 -239
43 -513 221 -157 102 -186 112 -224 77z"/>
<path d="M6269 4190 c-9 -5 -22 -22 -28 -38 -10 -25 -8 -38 21 -108 32 -77 33
-83 33 -229 0 -246 -67 -524 -196 -810 l-22 -50 -17 80 c-53 256 -156 405
-280 405 -34 0 -56 -6 -76 -22 -23 -18 -729 -634 -936 -818 -27 -23 -48 -39
-48 -37 0 3 76 164 169 359 241 504 248 522 196 573 -41 42 -81 34 -156 -31
-253 -221 -521 -409 -815 -572 -99 -56 -432 -219 -477 -235 -32 -12 79 186
145 257 55 61 81 77 140 90 34 8 61 55 52 91 -3 14 -18 35 -33 46 -54 43 -162
6 -256 -88 -91 -91 -203 -287 -253 -440 -26 -77 -56 -223 -48 -231 9 -9 364
142 571 244 286 140 574 314 788 476 42 32 77 57 77 55 0 -2 -48 -103 -106
-223 -121 -249 -192 -405 -236 -514 -32 -80 -111 -356 -106 -371 2 -5 48 31
103 79 1013 888 1305 1142 1312 1142 29 -1 93 -161 118 -296 17 -86 17 -263 1
-310 -6 -17 3 -29 55 -67 34 -26 66 -44 70 -41 15 9 117 180 168 282 109 218
187 443 237 688 24 117 30 392 11 474 -19 82 -50 153 -76 179 -22 22 -74 28
-102 11z"/>
</g>
</svg>
